<?xml version="1.0" standalone="no"?>
<!DOCTYPE svg PUBLIC "-//W3C//DTD SVG 20010904//EN"
 "http://www.w3.org/TR/2001/REC-SVG-20010904/DTD/svg10.dtd">
<svg version="1.0" xmlns="http://www.w3.org/2000/svg"
 width="1080.000000pt" height="1080.000000pt" viewBox="0 0 1080.000000 1080.000000"
 preserveAspectRatio="xMidYMid meet">

<g transform="translate(0.000000,1080.000000) scale(0.100000,-0.100000)"
fill="#000000" stroke="none">
<path d="M0 5400 l0 -5400 5400 0 5400 0 0 5400 0 5400 -5400 0 -5400 0 0
-5400z m6700 3352 c144 -50 243 -119 331 -229 144 -180 197 -301 396 -903 73
-223 197 -599 275 -836 l143 -432 95 -3 c77 -3 104 -9 144 -29 56 -29 144
-120 152 -158 3 -15 9 -35 15 -44 13 -25 12 -1665 -1 -1673 -5 -3 -10 -14 -10
-23 0 -30 -69 -121 -113 -149 -43 -27 -92 -48 -139 -57 l-26 -6 -4 -177 c-3
-144 -8 -187 -23 -223 -28 -68 -65 -115 -118 -150 -90 -59 -98 -60 -473 -60
-327 0 -346 1 -401 22 -68 25 -153 100 -183 162 -18 38 -20 62 -20 234 l0 192
-1530 0 -1530 0 0 -174 c0 -219 -10 -256 -90 -336 -40 -40 -73 -62 -116 -78
-57 -22 -68 -22 -409 -20 -192 2 -360 7 -373 10 -86 26 -194 122 -208 186 -3
15 -10 40 -15 56 -5 16 -9 102 -9 190 l0 162 -74 22 c-64 18 -83 30 -131 76
-30 30 -62 71 -70 90 -13 30 -15 160 -15 892 0 965 -6 888 80 975 61 61 135
89 234 89 81 0 92 6 102 61 4 19 10 39 14 44 4 6 26 71 50 145 24 74 53 162
66 195 12 33 34 101 49 150 15 50 33 106 41 125 7 19 65 195 129 390 182 555
210 635 292 809 125 265 291 425 508 489 39 12 84 23 100 25 17 2 647 4 1400
3 l1370 -1 95 -33z m2599 -4668 c158 -35 306 -155 383 -310 l43 -87 3 -159 c4
-169 -3 -208 -54 -309 -61 -122 -195 -234 -335 -280 -107 -35 -270 -33 -386 5
-152 49 -261 144 -334 291 -89 179 -89 366 -2 543 67 137 219 263 363 302 107
30 198 31 319 4z m-7500 -1864 c41 -143 78 -257 82 -253 3 5 23 67 44 138 20
72 48 166 61 210 13 44 28 99 34 123 l11 42 73 0 72 0 -98 -292 c-55 -161
-108 -315 -118 -343 l-18 -50 -66 0 -67 0 -64 188 c-88 258 -165 488 -165 493
0 2 33 4 73 4 l72 0 74 -260z m581 205 l0 -55 -65 0 -65 0 0 55 0 55 65 0 65
0 0 -55z m1340 -290 l0 -345 -65 0 -65 0 0 345 0 345 65 0 65 0 0 -345z m3380
290 l0 -55 -65 0 -65 0 0 55 0 55 65 0 65 0 0 -55z m1940 0 l0 -55 -65 0 -65
0 0 55 0 55 65 0 65 0 0 -55z m-7736 -52 c-13 -49 -24 -91 -24 -95 0 -14 80
-9 85 5 2 6 14 49 26 95 l21 82 45 0 c41 0 44 -1 37 -22 -20 -62 -41 -158 -36
-162 3 -4 23 -6 44 -6 41 0 43 -4 28 -44 -8 -21 -17 -25 -56 -28 l-46 -3 -17
-67 -17 -67 46 -3 46 -3 -8 -32 c-8 -30 -12 -32 -56 -35 -46 -3 -47 -4 -60
-48 -7 -25 -20 -69 -28 -97 l-15 -53 -43 0 -44 0 24 82 c33 111 32 118 -11
118 -40 0 -43 -4 -75 -117 l-24 -83 -42 0 -43 0 25 90 c14 50 22 95 19 100 -3
6 -24 10 -46 10 -42 0 -44 4 -29 44 8 23 15 26 58 26 l49 0 11 48 c6 26 14 57
18 70 6 21 3 22 -40 22 -39 0 -46 3 -46 19 0 42 11 51 61 51 l48 0 20 68 c10
37 22 79 25 95 6 24 11 27 50 27 l44 0 -24 -87z m2037 -74 c91 -31 149 -118
149 -226 l0 -63 -175 0 c-170 0 -175 -1 -175 -20 0 -62 72 -118 136 -106 18 4
47 18 63 31 23 20 40 25 83 25 30 0 58 -3 61 -6 11 -11 -35 -83 -68 -107 -50
-37 -82 -47 -156 -47 -150 0 -237 83 -247 236 -8 130 42 234 133 275 46 21
144 25 196 8z m837 -9 c83 -37 86 -47 92 -271 4 -148 8 -200 19 -213 13 -16 9
-17 -60 -14 -72 3 -74 4 -77 31 -4 32 -22 35 -48 6 -35 -39 -73 -51 -140 -47
-54 3 -68 9 -94 33 -58 56 -62 149 -8 211 33 37 60 47 168 64 95 16 110 24
110 59 0 39 -21 53 -79 54 -53 1 -78 -13 -92 -50 -8 -20 -15 -23 -69 -23 -67
0 -71 5 -45 67 21 50 42 72 90 94 57 26 171 26 233 -1z m504 10 c83 -23 144
-113 155 -226 l6 -64 -182 0 c-173 0 -181 -1 -181 -20 0 -50 64 -110 119 -110
26 0 73 23 90 44 10 12 32 16 77 16 35 0 64 -3 64 -7 0 -22 -55 -94 -91 -119
-36 -25 -54 -30 -119 -32 -135 -7 -223 50 -256 165 -30 104 -2 244 61 303 58
55 165 75 257 50z m1154 -10 c42 -21 84 -70 103 -123 14 -36 14 -190 1 -238
-12 -42 -71 -114 -111 -134 -58 -31 -172 -14 -208 29 -8 9 -17 16 -22 16 -5 0
-9 -56 -9 -125 l0 -125 -60 0 -60 0 0 355 0 356 58 -3 c54 -3 57 -4 60 -32 l4
-28 21 20 c59 55 148 68 223 32z m507 9 c86 -24 147 -111 155 -221 l5 -68
-182 0 -181 0 6 -27 c10 -45 33 -74 72 -90 44 -18 84 -11 128 22 26 20 44 25
88 25 60 0 64 -5 42 -48 -38 -73 -110 -112 -205 -112 -163 0 -251 88 -251 253
0 44 5 97 12 118 14 49 69 114 117 139 41 22 133 26 194 9z m547 -49 l0 -60
-30 0 c-45 0 -96 -25 -117 -56 -15 -24 -19 -54 -22 -186 l-3 -158 -64 0 -64 0
0 255 0 255 65 0 65 0 0 -42 1 -43 21 29 c29 39 76 66 116 66 l32 0 0 -60z
m660 39 c81 -35 130 -122 130 -231 l0 -48 -176 0 -177 0 6 -37 c7 -42 44 -79
89 -88 35 -8 90 9 113 35 14 16 31 20 77 20 72 0 76 -16 21 -80 -50 -58 -101
-80 -187 -80 -186 0 -281 145 -235 358 13 61 66 127 123 153 57 26 153 25 216
-2z m605 1 c74 -36 80 -56 83 -292 l4 -208 -71 0 -71 0 0 181 c0 99 -4 189
-10 199 -13 24 -63 41 -100 34 -16 -4 -39 -17 -52 -31 -22 -24 -23 -32 -26
-204 l-3 -179 -65 0 -64 0 0 255 0 255 60 0 60 0 0 -35 c0 -40 9 -44 28 -15
37 59 147 79 227 40z m533 5 c63 -27 98 -68 113 -132 l7 -33 -68 0 c-64 0 -68
1 -74 25 -8 31 -36 46 -88 47 -55 1 -85 -30 -100 -104 -14 -68 2 -158 34 -188
48 -45 121 -31 148 27 15 32 17 33 78 33 58 0 62 -2 62 -23 0 -38 -61 -119
-109 -144 -59 -31 -173 -32 -230 -3 -85 43 -128 139 -118 265 9 118 50 188
132 226 50 23 161 25 213 4z m816 -10 c76 -39 81 -52 84 -268 2 -106 8 -196
13 -201 19 -21 7 -26 -61 -26 -60 0 -70 3 -70 18 -1 43 -16 45 -64 8 -41 -31
-55 -36 -102 -36 -30 0 -70 6 -89 14 -95 40 -101 205 -9 258 18 10 75 27 128
37 98 18 126 32 126 60 0 28 -16 42 -59 52 -54 12 -107 -9 -117 -45 -6 -24
-10 -26 -65 -26 -58 0 -59 1 -59 28 0 46 41 105 90 130 39 20 57 23 130 20 60
-2 97 -9 124 -23z m-7124 -240 l0 -255 -65 0 -65 0 0 255 0 255 65 0 65 0 0
-255z m249 188 c11 -38 34 -117 51 -178 17 -60 35 -113 39 -118 4 -4 30 72 57
169 27 96 52 180 55 185 3 6 35 9 71 7 l65 -3 -90 -253 -90 -253 -70 3 -69 3
-54 150 c-63 174 -124 347 -124 352 0 2 31 3 70 3 l69 0 20 -67z m2458 0 c21
-36 42 -66 48 -67 5 -1 27 29 49 67 l38 67 75 0 75 0 -18 -27 c-9 -16 -47 -72
-82 -125 l-65 -98 59 -87 c32 -49 71 -107 87 -131 l29 -43 -83 3 -82 3 -40 73
c-23 39 -43 72 -46 72 -4 0 -26 -34 -49 -75 l-44 -75 -81 0 -80 0 20 23 c29
32 153 223 153 236 0 6 -34 62 -75 124 -41 63 -75 117 -75 121 0 3 33 6 74 6
l74 0 39 -67z m2013 -188 l0 -255 -65 0 -65 0 0 255 0 255 65 0 65 0 0 -255z
m1940 0 l0 -255 -65 0 -65 0 0 255 0 255 65 0 65 0 0 -255z"/>
<path d="M3910 8173 c-27 -10 -81 -67 -102 -108 -11 -22 -24 -42 -28 -45 -4
-3 -17 -32 -29 -65 -12 -33 -26 -69 -31 -80 -16 -34 -165 -489 -330 -1005 -34
-107 -84 -262 -111 -345 -27 -82 -49 -156 -49 -162 0 -10 403 -13 1983 -13
1091 0 1986 2 1989 5 2 3 -13 56 -34 117 -21 62 -49 147 -62 188 -71 222 -418
1236 -445 1300 -40 95 -94 174 -136 200 -32 20 -47 20 -1316 19 -706 0 -1291
-3 -1299 -6z"/>
<path d="M3060 5801 c-100 -32 -200 -101 -256 -175 -86 -115 -119 -212 -118
-351 0 -94 32 -222 60 -246 8 -6 14 -16 14 -21 0 -17 72 -102 119 -140 140
-115 308 -152 485 -108 95 24 148 55 237 138 112 106 162 225 162 387 0 79 -5
114 -23 165 -28 78 -71 152 -119 204 -51 55 -163 125 -235 147 -81 25 -248 25
-326 0z"/>
<path d="M7018 5796 c-171 -57 -314 -211 -353 -380 -44 -188 7 -373 140 -511
211 -217 548 -219 766 -5 82 81 134 183 155 303 12 72 12 94 0 164 -37 211
-186 379 -388 437 -85 24 -236 21 -320 -8z"/>
<path d="M9023 4046 c-253 -58 -423 -272 -425 -536 -4 -353 324 -622 665 -546
114 26 191 68 272 150 122 124 171 249 162 416 -15 301 -224 512 -522 526 -57
2 -113 -1 -152 -10z m244 -259 c95 -51 116 -175 42 -253 l-29 -30 21 -20 c41
-37 52 -74 53 -174 1 -89 0 -95 -19 -95 -18 0 -20 8 -25 95 -8 154 -28 170
-205 170 l-115 0 0 -122 c0 -128 -7 -155 -34 -145 -14 6 -16 39 -16 290 0 213
3 286 13 296 19 20 272 10 314 -12z"/>
<path d="M8990 3645 l0 -115 115 0 c130 0 165 11 190 60 30 57 10 127 -45 155
-21 11 -61 15 -145 15 l-115 0 0 -115z"/>
<path d="M1255 2188 c-2 -7 -9 -32 -15 -56 -6 -24 -14 -50 -17 -58 -4 -11 5
-14 39 -14 43 0 45 1 56 38 5 20 13 52 17 70 7 32 7 32 -35 32 -24 0 -42 -5
-45 -12z"/>
<path d="M3214 2199 c-33 -9 -59 -40 -70 -83 l-6 -26 111 0 111 0 0 25 c0 33
-47 82 -85 88 -16 2 -44 0 -61 -4z"/>
<path d="M4050 2019 c-78 -20 -100 -37 -100 -75 0 -47 48 -71 109 -54 53 14
81 51 81 106 0 24 -3 44 -7 43 -5 0 -42 -9 -83 -20z"/>
<path d="M4569 2202 c-32 -4 -76 -48 -81 -82 l-3 -25 99 -3 c123 -3 128 -2
115 36 -19 55 -65 82 -130 74z"/>
<path d="M5675 2203 c-55 -14 -85 -70 -85 -160 0 -79 21 -123 71 -148 58 -30
122 -1 148 68 26 67 7 182 -35 218 -21 19 -69 29 -99 22z"/>
<path d="M6225 2201 c-31 -7 -75 -60 -75 -92 0 -17 10 -19 110 -19 121 0 125
2 95 60 -23 44 -72 63 -130 51z"/>
<path d="M7403 2199 c-35 -10 -57 -37 -68 -81 l-7 -28 111 0 c122 0 126 2 96
60 -24 46 -75 65 -132 49z"/>
<path d="M9371 2019 c-41 -10 -80 -24 -87 -30 -17 -14 -18 -73 -1 -87 43 -34
136 -13 162 38 16 30 21 101 8 99 -5 0 -41 -9 -82 -20z"/>
</g>
</svg>
